<mxfile host="app.diagrams.net" modified="2022-08-12T20:13:39.398Z" agent="5.0 (Macintosh)" etag="bEuAkHinCOQ5VkpL9ZeC" version="20.2.3" type="github">
  <diagram id="qAKKASJnIrd8V2YidLNn" name="Page-1">
    <mxGraphModel dx="786" dy="438" grid="1" gridSize="10" guides="1" tooltips="1" connect="1" arrows="1" fold="1" page="1" pageScale="1" pageWidth="827" pageHeight="1169" math="0" shadow="0">
      <root>
        <mxCell id="0" />
        <mxCell id="1" parent="0" />
        <mxCell id="zu7ctzuHicQvZKSGoEo2-1" value="Super test" style="rounded=0;whiteSpace=wrap;html=1;" vertex="1" parent="1">
          <mxGeometry x="330" y="130" width="120" height="60" as="geometry" />
        </mxCell>
      </root>
    </mxGraphModel>
  </diagram>
</mxfile>
